<svg id="Camada_1" data-name="Camada 1" xmlns="http://www.w3.org/2000/svg" viewBox="0 0 20 19.51"><defs><style>.cls-1{fill:#fff;}</style></defs><title>github1</title><path class="cls-1" d="M49.08,0a10,10,0,0,0-3.16,19.49c.5.09.69-.21.69-.48s0-1,0-1.86c-2.51.46-3.16-.61-3.36-1.17a3.54,3.54,0,0,0-1-1.42c-.34-.18-.84-.65,0-.66a2,2,0,0,1,1.54,1,2.13,2.13,0,0,0,2.91.83h0a2.15,2.15,0,0,1,.64-1.34c-2.23-.25-4.55-1.11-4.55-4.93a3.91,3.91,0,0,1,1-2.69,3.67,3.67,0,0,1,.1-2.65s.84-.26,2.75,1a9.43,9.43,0,0,1,5,0c1.92-1.3,2.75-1,2.75-1a3.57,3.57,0,0,1,.1,2.65,3.83,3.83,0,0,1,1,2.69c0,3.83-2.34,4.68-4.56,4.93a2.36,2.36,0,0,1,.67,1.85c0,1.34,0,2.42,0,2.75s.19.58.69.48A10,10,0,0,0,49.08,0Z" transform="translate(-39.08)"/></svg>