<svg id="Camada_1" data-name="Camada 1" xmlns="http://www.w3.org/2000/svg" viewBox="0 0 19.88 20"><defs><style>.cls-1{fill:#fff;}</style></defs><title>linkedin1</title><path class="cls-1" d="M71.41,8.74H54.47A1.45,1.45,0,0,0,53,10.17h0V27.31a1.45,1.45,0,0,0,1.47,1.43H71.41a1.45,1.45,0,0,0,1.47-1.43h0V10.17a1.45,1.45,0,0,0-1.47-1.43ZM59,25.48H56v-9h3Zm-1.5-10.26h0a1.57,1.57,0,1,1,1.74-1.74,1.58,1.58,0,0,1-1.39,1.74ZM69.85,25.48h-3V20.65c0-1.21-.43-2-1.52-2a1.65,1.65,0,0,0-1.54,1.09,2,2,0,0,0-.1.73v5h-3v-9h3v1.27a3,3,0,0,1,2.71-1.5c2,0,3.45,1.29,3.45,4.06Z" transform="translate(-53 -8.74)"/></svg>