<svg id="Camada_1" data-name="Camada 1" xmlns="http://www.w3.org/2000/svg" viewBox="0 0 20 20"><defs><style>.cls-1{fill:#fff;}</style></defs><title>whatsapp1</title><path class="cls-1" d="M-16.7,4.55a11.2,11.2,0,0,0-.1-1.29,4.18,4.18,0,0,0-.37-1.08,3.71,3.71,0,0,0-.71-1,3.71,3.71,0,0,0-1-.71A4.16,4.16,0,0,0-20,.11,10.87,10.87,0,0,0-21.24,0H-32.15a11.2,11.2,0,0,0-1.29.1,4.18,4.18,0,0,0-1.08.37,3.71,3.71,0,0,0-1,.71,3.71,3.71,0,0,0-.71,1,4.16,4.16,0,0,0-.36,1.08,10.87,10.87,0,0,0-.11,1.28V15.45a11.2,11.2,0,0,0,.1,1.29,4.18,4.18,0,0,0,.37,1.08,3.71,3.71,0,0,0,.71,1,3.71,3.71,0,0,0,1,.71,4.16,4.16,0,0,0,1.08.36,10.87,10.87,0,0,0,1.28.11h10.91A11.2,11.2,0,0,0-20,19.9a4.18,4.18,0,0,0,1.08-.37,3.71,3.71,0,0,0,1-.71,3.71,3.71,0,0,0,.71-1,4.16,4.16,0,0,0,.36-1.08,10.87,10.87,0,0,0,.11-1.28V4.55ZM-26.47,17h0a7.22,7.22,0,0,1-3.43-.9l-3.8,1,1-3.72a7.15,7.15,0,0,1-1-3.58,7.17,7.17,0,0,1,7.2-7.16,7.17,7.17,0,0,1,7.16,7.2A7.18,7.18,0,0,1-26.47,17Zm0-13.13A6,6,0,0,0-32.4,9.94,6,6,0,0,0-31.52,13l.14.23-.6,2.19,2.28-.62.22.13a6,6,0,0,0,3,.83h0a6,6,0,0,0,6-6h0a6,6,0,0,0-6-6Zm3.5,8.52a1.81,1.81,0,0,1-1.21.85,2.36,2.36,0,0,1-1.12-.07,9.32,9.32,0,0,1-1-.38,8,8,0,0,1-3.06-2.7,3.49,3.49,0,0,1-.73-1.85,2,2,0,0,1,.63-1.5A.64.64,0,0,1-29,6.52h.28c.11,0,.26,0,.4.31s.51,1.24.56,1.33a.34.34,0,0,1,0,.31.92.92,0,0,1-.18.3c-.09.11-.19.24-.27.32a.26.26,0,0,0-.08.36,5.45,5.45,0,0,0,1,1.24,4.88,4.88,0,0,0,1.44.89c.18.09.29.08.39,0a5.68,5.68,0,0,0,.57-.7c.12-.18.24-.15.4-.09s1,.49,1.23.58.29.13.34.21a1.59,1.59,0,0,1-.07.78Z" transform="translate(36.7)"/></svg>