<svg xmlns="http://www.w3.org/2000/svg" width="32" height="32" viewBox="0 0 32 32"><g transform="translate(-499.5 -94.5)"><rect width="30.967" height="24.967" x="500.016" y="98.016" fill="none" stroke="#000" stroke-linecap="round" stroke-linejoin="round" stroke-width="1.033"/><path fill="none" stroke="#000" d="m 500.49999,102.00008 30.78107,0"/><circle cx="528" cy="100" r=".5"/><circle cx="526" cy="100.02" r=".5"/><circle cx="524" cy="100" r=".5"/><rect width="14" height="6" x="508.5" y="111.5" fill="#239fdb"/><rect width="28" height="7" x="501.5" y="103.5" fill="#239fdb"/><rect width="4" height="4" x="502.5" y="108.5" fill="#1d67b1"/><rect width="2" height="2" x="509.5" y="112.5" fill="#1d67b1"/><rect width="3" height="1" x="512.5" y="112.5" fill="#1d67b1"/><rect width="9" height="2" x="512.5" y="114.5" fill="#1d67b1"/><rect width="6" height="10" x="523.5" y="111.5" fill="#239fdb"/><rect width="14" height="3" x="508.5" y="118.5" fill="#239fdb"/><rect width="2" height="2" x="509.5" y="119.5" fill="#1d67b1"/><rect width="3" height="1" x="512.5" y="119.5" fill="#1d67b1"/><rect width="6" height="1" x="501.5" y="113.5" fill="#239fdb"/><rect width="6" height="1" x="501.5" y="115.5" fill="#239fdb"/><rect width="6" height="1" x="501.5" y="118.5" fill="#239fdb"/><rect width="6" height="1" x="501.5" y="120.5" fill="#239fdb"/></g></svg>