<?xml version="1.0"?>
<svg xmlns="http://www.w3.org/2000/svg" xmlns:xlink="http://www.w3.org/1999/xlink" xmlns:svgjs="http://svgjs.com/svgjs" version="1.1" width="512" height="512" x="0" y="0" viewBox="0 0 510 510" style="enable-background:new 0 0 512 512" xml:space="preserve" class=""><g><g xmlns="http://www.w3.org/2000/svg"><path d="m285 425.842v83.172l45-40 45 40v-83.172c-13.647 6.5-28.905 10.145-45 10.145s-31.353-3.645-45-10.145z" fill="#dcdcdc" data-original="#000000" style="" class=""/><circle cx="330" cy="330.986" r="75" fill="#dcdcdc" data-original="#000000" style="" class=""/><path d="m0 .986v390h243.883c-11.895-17.02-18.883-37.707-18.883-60 0-57.897 47.103-105 105-105s105 47.103 105 105c0 22.293-6.988 42.98-18.883 60h93.883v-390h-510zm180 330h-90v-30h90zm15-60h-105v-30h105zm45-60h-150v-30h150zm180-60h-330v-30h330zm0-60h-330v-30h330z" fill="#dcdcdc" data-original="#000000" style="" class=""/></g></g></svg>
