<?xml version="1.0" encoding="UTF-8"?><svg xmlns="http://www.w3.org/2000/svg" xmlns:xlink="http://www.w3.org/1999/xlink" viewBox="0 0 50 50" version="1.1"><path d="M5 2C3.355 2 2 3.355 2 5v30c0 1.645 1.355 3 3 3h14v2H9.906a.999.999 0 0 0-.687.375l-5 6c-.242.3-.29.71-.121 1.059.168.347.52.566.902.566h40c.383 0 .734-.219.902-.566a.994.994 0 0 0-.12-1.059l-5-6A.998.998 0 0 0 40 40h-9v-2h14c1.645 0 3-1.355 3-3V5c0-1.645-1.355-3-3-3zm0 2h40c.555 0 1 .445 1 1v30c0 .555-.445 1-1 1H5c-.555 0-1-.445-1-1V5c0-.555.445-1 1-1zm1 2v28h38V6zm2 2h34v24H8zm11.281 3.281l-8 8-.687.719.687.719 8 8 1.438-1.438L13.437 20l7.282-7.281zm11.438 0L29.28 12.72 36.563 20l-7.282 7.281 1.438 1.438 8-8 .687-.719-.687-.719zM21 38h8v4h-8zm-10.531 4H19v2h12v-2h8.531l3.344 4H7.125z" id="surface1"/><metadata><rdf:RDF xmlns:rdf="http://www.w3.org/1999/02/22-rdf-syntax-ns#" xmlns:rdfs="http://www.w3.org/2000/01/rdf-schema#" xmlns:dc="http://purl.org/dc/elements/1.1/"><rdf:Description about="https://iconscout.com/legal#licenses" dc:title="google,code" dc:description="google,code" dc:publisher="Iconscout" dc:date="2017-12-09" dc:format="image/svg+xml" dc:language="en"><dc:creator><rdf:Bag><rdf:li>Icons8</rdf:li></rdf:Bag></dc:creator></rdf:Description></rdf:RDF></metadata></svg>