<svg id="Camada_1" data-name="Camada 1" xmlns="http://www.w3.org/2000/svg" viewBox="0 0 1481.77 1263.02"><defs><style>.cls-1{fill:#fff;}</style></defs><title>down-arrow</title><text x="1625.01" y="308.2"/><path class="cls-1" d="M-1623.56,954.82a1.5,1.5,0,0,0,0-3,1.5,1.5,0,0,0,0,3Z" transform="translate(1625.01 308.2)"/><path class="cls-1" d="M-284.78-308.2a19.7,19.7,0,0,1,19.63,19.72,19.7,19.7,0,0,1-19.72,19.63,19.7,19.7,0,0,1-19.63-19.72A19.69,19.69,0,0,1-284.78-308.2Zm0,35.41a15.76,15.76,0,0,0,15.65-15.58,15.76,15.76,0,0,0-15.82-15.9,15.77,15.77,0,0,0-15.66,15.58A15.77,15.77,0,0,0-284.74-272.79Z" transform="translate(1625.01 308.2)"/><path class="cls-1" d="M-284.88-285.83c-2.59-3.26-4.19-5.52-6.08-7.5-.54-.57-1.94-.5-2.91-.39-.24,0-.72,1.71-.43,2,2.76,3,5.6,5.88,8.58,8.63.38.35,2,0,2.53-.53a95.24,95.24,0,0,0,7.23-7.26c.52-.59.18-1.93.23-2.93-1,.11-2.38-.15-2.92.41C-280.56-291.41-282.18-289.17-284.88-285.83Z" transform="translate(1625.01 308.2)"/><path class="cls-1" d="M-284.88-285.83c2.7-3.34,4.32-5.58,6.23-7.54.54-.56,1.93-.3,2.92-.41,0,1,.29,2.34-.23,2.93a95.24,95.24,0,0,1-7.23,7.26c-.57.52-2.15.88-2.53.53-3-2.75-5.82-5.66-8.58-8.63-.29-.32.19-2,.43-2,1-.11,2.37-.18,2.91.39C-289.07-291.35-287.47-289.09-284.88-285.83Z" transform="translate(1625.01 308.2)"/></svg>