<svg xmlns="http://www.w3.org/2000/svg" width="29.996" height="30" viewBox="0 0 7.936 7.938"><path d="m 276.48633,193.49805 a 1.0001001,1.0001001 0 0 0 -0.69336,0.29492 l -2,2 a 1.0001001,1.0001001 0 0 0 -0.29492,0.70898 v 3.58399 l -0.54688,0.54687 c -2.34748,-2.00938 -5.34005,-3.13476 -8.45117,-3.13476 -7.16787,0 -13,5.83216 -13,13 0,7.16787 5.83213,12.99996 13,13 7.16784,0 12.99805,-5.83213 12.99805,-13 0,-2.38594 -0.65514,-4.72414 -1.89649,-6.76172 a 1.0001,1.0001 0 1 0 -1.70508,1.04101 c 1.05049,1.72422 1.60157,3.70172 1.60157,5.72071 0,6.087 -4.91108,11 -10.99805,11 -6.087,0 -11,-4.91304 -11,-11 0,-6.08697 4.913,-10.99805 11,-10.99805 2.58106,-3e-5 5.06515,0.91273 7.0332,2.55078 l -1.41992,1.41992 C 268.5264,202.20316 266.55072,201.5 264.5,201.5 c -4.95866,0 -8.99998,4.03938 -9,8.99805 0,4.9587 4.0413,8.99804 9,8.99804 4.95866,0 8.99805,-4.03934 8.99805,-8.99804 0,-1.27529 -0.26684,-2.5366 -0.79102,-3.69922 a 1.0010053,1.0010053 0 1 0 -1.82226,0.82812 c 0.40766,0.90429 0.61132,1.8792 0.61132,2.8711 0,3.87779 -3.11829,7.00586 -6.99609,7.00586 -3.87783,0 -7,-3.12807 -7,-7.00586 4e-5,-3.8778 3.1222,-6.99805 7,-6.99805 1.51778,0 2.98085,0.5011 4.18359,1.39844 l -1.42968,1.42968 C 266.44222,205.79292 265.48692,205.5 264.5,205.5 c -2.74957,0 -4.99805,2.24848 -4.99805,4.99805 0,2.74957 2.24848,5.00586 4.99805,5.00586 2.74957,0 4.99609,-2.25629 4.99609,-5.00586 a 1.0001,1.0001 0 1 0 -1.99218,0 c 0,1.6687 -1.33525,3.0039 -3.00391,3.0039 -1.6687,0 -2.99805,-1.3352 -2.99805,-3.0039 0,-1.6687 1.32935,-2.99606 2.99805,-2.9961 0.44847,0 0.88253,0.10878 1.28125,0.29688 l -1.99023,1.99023 a 1.0021986,1.0021986 0 1 0 1.41601,1.41797 l 2.6543,-2.6543 a 1.0001,1.0001 0 0 0 0.34961,-0.34961 l 2.47851,-2.47851 a 1.0001,1.0001 0 0 0 0.34961,-0.34961 l 2.58594,-2.58594 a 1.0021986,1.0021986 0 0 0 0.13086,-0.13086 l 1.1582,-1.1582 h 3.58789 a 1.0001001,1.0001001 0 0 0 0.70117,-0.29492 l 2.00196,-2.00196 a 1.0001001,1.0001001 0 0 0 0,-1.41015 l -1.88867,-1.89063 a 1.0001001,1.0001001 0 0 0 -0.22071,-0.22265 l -1.88476,-1.88672 a 1.0001001,1.0001001 0 0 0 -0.72461,-0.29492 z m 0.0156,2.41406 0.58594,0.58594 -1.58984,1.58984 v -1.17187 z m 2,2 0.58399,0.58398 -0.9961,1.00391 h -1.17578 z" color="#000" font-family="sans-serif" font-weight="400" overflow="visible" transform="matrix(.26458 0 0 .26458 -66.543 -51.196)" white-space="normal" style="line-height:normal;font-variant-ligatures:normal;font-variant-position:normal;font-variant-caps:normal;font-variant-numeric:normal;font-variant-alternates:normal;font-feature-settings:normal;text-indent:0;text-align:start;text-decoration-line:none;text-decoration-style:solid;text-decoration-color:#000;text-transform:none;text-orientation:mixed;shape-padding:0;isolation:auto;mix-blend-mode:normal"/></svg>